<?xml version="1.0" encoding="UTF-8"?>
<svg width="122px" height="104px" viewBox="0 0 122 104" version="1.1" xmlns="http://www.w3.org/2000/svg" xmlns:xlink="http://www.w3.org/1999/xlink">
    <!-- Generator: Sketch 55 (78076) - https://sketchapp.com -->
    <title>404页面</title>
    <desc>Created with Sketch.</desc>
    <g id="Page-1" stroke="none" stroke-width="1" fill="none" fill-rule="evenodd">
        <g id="空白页" transform="translate(-40.000000, -196.000000)">
            <g id="404页面" transform="translate(40.000000, 196.000000)">
                <g id="分组-5">
                    <g id="背景/线" fill="#C3CBD6">
                        <g id="-">
                            <g id="编组" transform="translate(14.200000, 9.200000)" fill-rule="nonzero">
                                <path d="M0.8,73.1 C0.3581722,73.1 -5.68434189e-14,72.7418278 -5.68434189e-14,72.3 C-5.68434189e-14,71.8581722 0.3581722,71.5 0.8,71.5 L70.8,71.5 C71.2418278,71.5 71.6,71.8581722 71.6,72.3 C71.6,72.7418278 71.2418278,73.1 70.8,73.1 L0.8,73.1 Z M74.8,73.1 C74.3581722,73.1 74,72.7418278 74,72.3 C74,71.8581722 74.3581722,71.5 74.8,71.5 L77.3,71.5 C77.7418278,71.5 78.1,71.8581722 78.1,72.3 C78.1,72.7418278 77.7418278,73.1 77.3,73.1 L74.8,73.1 Z M83.8,73.1 C83.3581722,73.1 83,72.7418278 83,72.3 C83,71.8581722 83.3581722,71.5 83.8,71.5 L92.8,71.5 C93.2418278,71.5 93.6,71.8581722 93.6,72.3 C93.6,72.7418278 93.2418278,73.1 92.8,73.1 L83.8,73.1 Z M23.8,80.6 C23.3581722,80.6 23,80.2418278 23,79.8 C23,79.3581722 23.3581722,79 23.8,79 L30.8,79 C31.2418278,79 31.6,79.3581722 31.6,79.8 C31.6,80.2418278 31.2418278,80.6 30.8,80.6 L23.8,80.6 Z M35.3,80.6 C34.8581722,80.6 34.5,80.2418278 34.5,79.8 C34.5,79.3581722 34.8581722,79 35.3,79 L65.8,79 C66.2418278,79 66.6,79.3581722 66.6,79.8 C66.6,80.2418278 66.2418278,80.6 65.8,80.6 L35.3,80.6 Z M80,52.8 C80,51.7333333 81.6,51.7333333 81.6,52.8 L81.6,55.8 C81.6,56.2418278 81.2418278,56.6 80.8,56.6 L77.8,56.6 C76.7333333,56.6 76.7333333,55 77.8,55 L80,55 L80,52.8 Z M81.6,58.8 C81.6,59.8666667 80,59.8666667 80,58.8 L80,55.8 C80,55.3581722 80.3581722,55 80.8,55 L83.8,55 C84.8666667,55 84.8666667,56.6 83.8,56.6 L81.6,56.6 L81.6,58.8 Z M4,28.8 C4,27.7333333 5.6,27.7333333 5.6,28.8 L5.6,31.8 C5.6,32.2418278 5.2418278,32.6 4.8,32.6 L1.8,32.6 C0.733333333,32.6 0.733333333,31 1.8,31 L4,31 L4,28.8 Z M78.1,3.5 L80.8,3.5 C81.8666667,3.5 81.8666667,5.1 80.8,5.1 L78.1,5.1 L78.1,7.8 C78.1,8.86666667 76.5,8.86666667 76.5,7.8 L76.5,5.1 L73.8,5.1 C72.7333333,5.1 72.7333333,3.5 73.8,3.5 L76.5,3.5 L76.5,0.8 C76.5,-0.266666667 78.1,-0.266666667 78.1,0.8 L78.1,3.5 Z M5.6,34.8 C5.6,35.8666667 4,35.8666667 4,34.8 L4,31.8 C4,31.3581722 4.3581722,31 4.8,31 L7.8,31 C8.86666667,31 8.86666667,32.6 7.8,32.6 L5.6,32.6 L5.6,34.8 Z" id="Path-2"></path>
                                <path d="M14.0928932,61.1431458 C14.5642977,60.6717412 15.2714045,61.378848 14.8,61.8502525 L13.7393398,62.9109127 C13.5440777,63.1061748 13.2274952,63.1061748 13.032233,62.9109127 L11.9715729,61.8502525 C11.5001684,61.378848 12.2072751,60.6717412 12.6786797,61.1431458 L13.3857864,61.8502525 L14.0928932,61.1431458 Z M12.6786797,63.9715729 C12.2072751,64.4429774 11.5001684,63.7358706 11.9715729,63.2644661 L13.032233,62.2038059 C13.2274952,62.0085438 13.5440777,62.0085438 13.7393398,62.2038059 L14.8,63.2644661 C15.2714045,63.7358706 14.5642977,64.4429774 14.0928932,63.9715729 L13.3857864,63.2644661 L12.6786797,63.9715729 Z M22.9213203,8.8 C23.3927249,8.32859548 24.0998316,9.03570226 23.6284271,9.50710678 L22.567767,10.567767 C22.3725048,10.7630291 22.0559223,10.7630291 21.8606602,10.567767 L20.8,9.50710678 C20.3285955,9.03570226 21.0357023,8.32859548 21.5071068,8.8 L22.2142136,9.50710678 L22.9213203,8.8 Z M21.5071068,11.6284271 C21.0357023,12.0998316 20.3285955,11.3927249 20.8,10.9213203 L21.8606602,9.86066017 C22.0559223,9.66539803 22.3725048,9.66539803 22.567767,9.86066017 L23.6284271,10.9213203 C24.0998316,11.3927249 23.3927249,12.0998316 22.9213203,11.6284271 L22.2142136,10.9213203 L21.5071068,11.6284271 Z" id="Path复制"></path>
                            </g>
                        </g>
                    </g>
                    <g id="编组" transform="translate(32.038086, 12.351562)">
                        <g id="分组" transform="translate(33.000000, 34.500000) rotate(-338.000000) translate(-33.000000, -34.500000) translate(9.000000, 8.000000)">
                            <path d="M32.302769,19 L38,19 L38,22 C38,23.1045695 37.1045695,24 36,24 L17,24 C15.8954305,24 15,23.1045695 15,22 L15,19 L19.697231,19 C15.2324103,18.4355091 13,16.4355091 13,13 C13,5.82029825 18.8202983,1.77635684e-15 26,1.77635684e-15 C33.1797017,1.77635684e-15 39,5.82029825 39,13 C39,16.4355091 36.7675897,18.4355091 32.302769,19 L26,19 C23.5538729,19.221977 21.4529499,19.221977 19.697231,19 Z" id="Oval-4" stroke="#C3CBD6" stroke-width="1.6" fill="#F5F7F9"></path>
                            <rect id="矩形" stroke="#C3CAD7" stroke-width="1.6" fill="#FFFFFF" x="6.8" y="14.8" width="38.4" height="6.4"></rect>
                            <path d="M14.5,19.5 C13.6715729,19.5 13,18.8284271 13,18 C13,17.1715729 13.6715729,16.5 14.5,16.5 C15.3284271,16.5 16,17.1715729 16,18 C16,18.8284271 15.3284271,19.5 14.5,19.5 Z M21.5,19.5 C20.6715729,19.5 20,18.8284271 20,18 C20,17.1715729 20.6715729,16.5 21.5,16.5 C22.3284271,16.5 23,17.1715729 23,18 C23,18.8284271 22.3284271,19.5 21.5,19.5 Z M30.5,19.5 C29.6715729,19.5 29,18.8284271 29,18 C29,17.1715729 29.6715729,16.5 30.5,16.5 C31.3284271,16.5 32,17.1715729 32,18 C32,18.8284271 31.3284271,19.5 30.5,19.5 Z M37.5,19.5 C36.6715729,19.5 36,18.8284271 36,18 C36,17.1715729 36.6715729,16.5 37.5,16.5 C38.3284271,16.5 39,17.1715729 39,18 C39,18.8284271 38.3284271,19.5 37.5,19.5 Z" id="Oval-3-Copy-3" fill="#C3CAD7"></path>
                            <path d="M7.45132325,24.5663523 C7.45132325,24.2902099 7.67518087,24.0663523 7.95132325,24.0663523 C8.22746562,24.0663523 8.45132325,24.2902099 8.45132325,24.5663523 L8.45132325,37.553657 C8.45132325,37.8297994 8.22746562,38.053657 7.95132325,38.053657 C7.67518087,38.053657 7.45132325,37.8297994 7.45132325,37.553657 L7.45132325,24.5663523 Z M7.45132325,40.9179148 C7.45132325,40.6417724 7.67518087,40.4179148 7.95132325,40.4179148 C8.22746562,40.4179148 8.45132325,40.6417724 8.45132325,40.9179148 L8.45132325,43.3407664 C8.45132325,43.6169088 8.22746562,43.8407664 7.95132325,43.8407664 C7.67518087,43.8407664 7.45132325,43.6169088 7.45132325,43.3407664 L7.45132325,40.9179148 Z M7.45132325,46.0487742 C7.45132325,45.7726318 7.67518087,45.5487742 7.95132325,45.5487742 C8.22746562,45.5487742 8.45132325,45.7726318 8.45132325,46.0487742 L8.45132325,53.3798289 C8.45132325,53.6559713 8.22746562,53.8798289 7.95132325,53.8798289 C7.67518087,53.8798289 7.45132325,53.6559713 7.45132325,53.3798289 L7.45132325,46.0487742 Z" id="形状" fill="#C3CAD7" fill-rule="nonzero" transform="translate(7.951323, 38.973091) rotate(30.000000) translate(-7.951323, -38.973091) "></path>
                            <path d="M41.6889397,25.3065308 C41.6889397,25.0303884 41.9127974,24.8065308 42.1889397,24.8065308 C42.4650821,24.8065308 42.6889397,25.0303884 42.6889397,25.3065308 L41.9770179,40.4135447 C41.9770179,40.6896871 41.7531602,40.9135447 41.4770179,40.9135447 C41.2008755,40.9135447 40.9770179,40.6896871 40.9770179,40.4135447 L41.6889397,25.3065308 Z" id="形状-copy" fill="#C3CAD7" fill-rule="nonzero" transform="translate(41.832979, 32.860038) scale(-1, 1) rotate(30.000000) translate(-41.832979, -32.860038) "></path>
                            <path d="M8.600989,26.1695459 C8.600989,25.8934035 8.82484663,25.6695459 9.100989,25.6695459 C9.37713138,25.6695459 9.600989,25.8934035 9.600989,26.1695459 L9.9584695,32.1801833 C9.9584695,32.4563257 9.73461187,32.6801833 9.4584695,32.6801833 C9.18232712,32.6801833 8.9584695,32.4563257 8.9584695,32.1801833 L8.600989,26.1695459 Z" id="路径-copy" fill="#C3CAD7" fill-rule="nonzero" transform="translate(9.279729, 29.174865) rotate(48.000000) translate(-9.279729, -29.174865) "></path>
                            <path d="M44.0807178,27.0054017 C44.0807178,26.7292593 44.3045754,26.5054017 44.5807178,26.5054017 C44.8568602,26.5054017 45.0807178,26.7292593 45.0807178,27.0054017 L45.0807178,34.3364564 C45.0807178,34.6125988 44.8568602,34.8364564 44.5807178,34.8364564 C44.3045754,34.8364564 44.0807178,34.6125988 44.0807178,34.3364564 L44.0807178,27.0054017 Z" id="路径" fill="#C3CAD7" fill-rule="nonzero" transform="translate(44.580718, 30.670929) rotate(-44.000000) translate(-44.580718, -30.670929) "></path>
                        </g>
                        <path d="M18.3964844,53.5620117 L12.9619141,53.5620117 L12.9619141,51.1083984 L18.3964844,44.6484375 L20.996582,44.6484375 L20.996582,51.2475586 L22.3442383,51.2475586 L22.3442383,53.5620117 L20.996582,53.5620117 L20.996582,55.5688477 L18.3964844,55.5688477 L18.3964844,53.5620117 Z M18.3964844,51.2475586 L18.3964844,47.8710938 L15.5253906,51.2475586 L18.3964844,51.2475586 Z" id="404" fill="#C3CBD6" fill-rule="nonzero" transform="translate(17.653076, 50.108643) rotate(-23.000000) translate(-17.653076, -50.108643) "></path>
                        <path d="M26.9619141,46.15625 C26.9619141,44.1152242 27.329342,42.6870158 28.064209,41.871582 C28.7990759,41.0561483 29.9184495,40.6484375 31.4223633,40.6484375 C32.1450231,40.6484375 32.7382789,40.7375479 33.2021484,40.9157715 C33.6660179,41.093995 34.0444321,41.3259263 34.3374023,41.6115723 C34.6303726,41.8972182 34.8610831,42.1975082 35.029541,42.5124512 C35.1979989,42.8273942 35.3334956,43.1948221 35.4360352,43.6147461 C35.6362315,44.4155313 35.7363281,45.2504839 35.7363281,46.1196289 C35.7363281,48.0678808 35.4067416,49.4936478 34.7475586,50.3969727 C34.0883756,51.3002975 32.9531331,51.7519531 31.3417969,51.7519531 C30.438472,51.7519531 29.7084989,51.6079116 29.1518555,51.3198242 C28.5952121,51.0317368 28.1386737,50.6093778 27.7822266,50.0527344 C27.5234362,49.6572246 27.3220222,49.1164585 27.1779785,48.4304199 C27.0339348,47.7443813 26.9619141,46.9863323 26.9619141,46.15625 Z M29.9208984,46.1635742 C29.9208984,47.5307686 30.0417468,48.4645971 30.2834473,48.9650879 C30.5251477,49.4655787 30.875486,49.7158203 31.3344727,49.7158203 C31.6372085,49.7158203 31.8996571,49.6096202 32.1218262,49.3972168 C32.3439953,49.1848134 32.5075678,48.8491234 32.6125488,48.3901367 C32.7175298,47.93115 32.7700195,47.2158252 32.7700195,46.2441406 C32.7700195,44.8183522 32.6491711,43.8601099 32.4074707,43.3693848 C32.1657703,42.8786597 31.8032251,42.6333008 31.3198242,42.6333008 C30.8266577,42.6333008 30.4702159,42.8835424 30.2504883,43.3840332 C30.0307606,43.884524 29.9208984,44.8110284 29.9208984,46.1635742 Z" id="路径-3" fill="#C3CBD6" fill-rule="nonzero" transform="translate(31.349121, 46.200195) rotate(-14.000000) translate(-31.349121, -46.200195) "></path>
                        <path d="M37.0972852,62.9404297 L31.6627148,62.9404297 L31.6627148,60.4868164 L37.0972852,54.0268555 L39.6973828,54.0268555 L39.6973828,60.6259766 L41.0450391,60.6259766 L41.0450391,62.9404297 L39.6973828,62.9404297 L39.6973828,64.9472656 L37.0972852,64.9472656 L37.0972852,62.9404297 Z M37.0972852,60.6259766 L37.0972852,57.2495117 L34.2261914,60.6259766 L37.0972852,60.6259766 Z" id="路径-2" fill="#C3CBD6" fill-rule="nonzero" transform="translate(36.353877, 59.487061) rotate(34.000000) translate(-36.353877, -59.487061) "></path>
                    </g>
                </g>
            </g>
        </g>
    </g>
</svg>