<svg xmlns="http://www.w3.org/2000/svg" xmlns:xlink="http://www.w3.org/1999/xlink" viewBox="0 0 536 134.41"><defs><clipPath id="a" transform="translate(17.88)"><path d="M35.24,63.45a5.3,5.3,0,0,0-1.6-7.35,5.39,5.39,0,0,0-7.35,1.68l-4,6.31L9.74,44.27a5.28,5.28,0,0,0-7.27-1.68A5.4,5.4,0,0,0,.79,49.94L17.1,75.52,17,92.46a5.32,5.32,0,0,0,10.63,0V75.36Zm4.07-21.66a5.32,5.32,0,1,0,5.28,5.28A5.27,5.27,0,0,0,39.31,41.79ZM46,97.26a5.34,5.34,0,0,0,7-2.56l5-10.55H84.87a5.28,5.28,0,0,0,4.4-2.4c1.83-2.72.39-5-.48-6.87l-14.23-30a5.4,5.4,0,0,0-4.8-3,5.31,5.31,0,0,0-4.79,3L43.39,90.14A5.45,5.45,0,0,0,46,97.26ZM69.76,59.37,77.28,75h-15Zm21.5,27.74a5.32,5.32,0,1,0,5.36,5.35A5.33,5.33,0,0,0,91.26,87.11Zm77.64-.88c-2.08-2.08-5-2.88-7.43-1.2a5.33,5.33,0,0,0-1.12,7.43c3.12,4.32,8.15,6.71,14.23,6.71,9.59,0,16.14-7.43,16.14-18.46V61.53a5.32,5.32,0,0,0-10.63,0V80.71c0,3.6-1,7.84-5.51,7.84A7.48,7.48,0,0,1,168.9,86.23ZM185.36,51a5.32,5.32,0,1,0-5.27-5.35A5.35,5.35,0,0,0,185.36,51Zm66.95,12a5.32,5.32,0,0,0-10.63,0V74.16c0,7-3.59,14.39-13.74,14.39-12.47,0-13.75-10-13.75-14.39V47.07a5.32,5.32,0,0,0-10.63,0V74.16c0,14.94,9.83,25,24.38,25,16.78,0,24.37-12.94,24.37-25ZM247,52.42a5.32,5.32,0,1,0-5.36-5.35A5.34,5.34,0,0,0,247,52.42Zm28-8.07c-2.48-2.88-5.11-3-7.11-1.92-2.56,1.36-2.8,3.76-2.8,5.76V92.46a5.32,5.32,0,0,0,10.63,0V60.81l27.73,34a8.67,8.67,0,0,0,2.72,2.4,5.09,5.09,0,0,0,5.51-.56,5.73,5.73,0,0,0,2-4.8V62.89A5.32,5.32,0,0,0,303,63V78.79Zm33.41-2.56a5.28,5.28,0,1,0,5.27,5.28A5.29,5.29,0,0,0,308.4,41.79ZM349,92.46a5.28,5.28,0,0,0-5.27-5.35h-5.92v-40a5.31,5.31,0,0,0-10.62,0V92.46a5.32,5.32,0,0,0,5.27,5.28h11.27A5.27,5.27,0,0,0,349,92.46Zm10.63,5.28a5.32,5.32,0,1,0-5.27-5.28A5.27,5.27,0,0,0,359.65,97.74ZM417,63a5.32,5.32,0,0,0-10.63,0V74.16c0,7-3.6,14.39-13.75,14.39-12.46,0-13.74-10-13.74-14.39V47.07a5.32,5.32,0,0,0-10.63,0V74.16c0,14.94,9.83,25,24.37,25,16.79,0,24.38-12.94,24.38-25Zm-5.27-10.55a5.32,5.32,0,1,0-5.36-5.35A5.34,5.34,0,0,0,411.72,52.42Zm73.34,17.26a29.15,29.15,0,0,0-11.35-23.09,5.32,5.32,0,0,0-7.43,1,5.25,5.25,0,0,0,.88,7.43,18.38,18.38,0,0,1,7.27,14.7,18.82,18.82,0,1,1-37.64,0A18.57,18.57,0,0,1,444,55a5.3,5.3,0,0,0-6.47-8.39,29.38,29.38,0,0,0,18.06,52.58A29.51,29.51,0,0,0,485.06,69.68Zm-34.76-24a5.32,5.32,0,1,0,5.27-5.36A5.32,5.32,0,0,0,450.3,45.71Z" style="fill:none"/></clipPath><linearGradient id="b" y1="62.26" x2="536" y2="62.26" gradientUnits="userSpaceOnUse"><stop offset="0" stop-color="#60a5fa"/><stop offset="1" stop-color="#10b981"/></linearGradient></defs><rect x="17.88" width="485.06" height="134.41" style="fill:none"/><g style="clip-path:url(#a)"><rect y="1.76" width="536" height="121" style="fill:url(#b)"/></g><circle cx="144.77" cy="69.56" r="26" style="fill:#60a5fa"/><circle cx="170.69" cy="39.22" r="6.5" style="fill:#74ffaf"/><path d="M154.89,47.06s1.17,32.52-36.56,51.38c-7.38,3.69-11.79,4-13.88,2.09-3.16-2.89-.21-10.72,1.19-14.47" transform="translate(17.88)" style="fill:none;stroke:#74ffaf;stroke-linecap:round;stroke-miterlimit:10;stroke-dasharray:6"/><path d="M139.46,45.2c4.15-3,7.68-5.24,10-6.64" transform="translate(17.88)" style="fill:none;stroke:#74ffaf;stroke-linecap:round;stroke-miterlimit:10;stroke-dasharray:6"/></svg>